<?xml version="1.0" encoding="UTF-8" standalone="no"?>
<!-- Created with Inkscape (http://www.inkscape.org/) -->

<svg
   width="210mm"
   height="297mm"
   viewBox="0 0 210 297"
   version="1.1"
   id="svg5"
   inkscape:version="1.2 (dc2aeda, 2022-05-15)"
   sodipodi:docname="logo.svg"
   xmlns:inkscape="http://www.inkscape.org/namespaces/inkscape"
   xmlns:sodipodi="http://sodipodi.sourceforge.net/DTD/sodipodi-0.dtd"
   xmlns="http://www.w3.org/2000/svg"
   xmlns:svg="http://www.w3.org/2000/svg">
  <sodipodi:namedview
     id="namedview7"
     pagecolor="#ffffff"
     bordercolor="#000000"
     borderopacity="0.25"
     inkscape:showpageshadow="2"
     inkscape:pageopacity="0.0"
     inkscape:pagecheckerboard="0"
     inkscape:deskcolor="#d1d1d1"
     inkscape:document-units="mm"
     showgrid="false"
     inkscape:zoom="0.45014485"
     inkscape:cx="375.4347"
     inkscape:cy="527.60794"
     inkscape:window-width="1584"
     inkscape:window-height="789"
     inkscape:window-x="226"
     inkscape:window-y="113"
     inkscape:window-maximized="0"
     inkscape:current-layer="layer1" />
  <defs
     id="defs2">
    <linearGradient
       id="linearGradient1208"
       inkscape:swatch="solid">
      <stop
         style="stop-color:#000000;stop-opacity:1;"
         offset="0"
         id="stop1206" />
    </linearGradient>
    <rect
       x="154.65341"
       y="281.18802"
       width="323.36623"
       height="140.59401"
       id="rect1202" />
  </defs>
  <g
     inkscape:label="Layer 1"
     inkscape:groupmode="layer"
     id="layer1">
    <path
       id="rect184"
       style="fill:#000000;stroke:none;stroke-width:0.91963;stroke-linecap:square;stroke-opacity:0.5169903"
       inkscape:transform-center-x="-1.9480892"
       inkscape:transform-center-y="2.9735694"
       d="M 136.24921 61.150361 L 30.064857 61.150114 L 30.064529 126.25179 L 51.789037 126.2516 A 10.660724 10.637469 45.000065 0 0 62.362544 136.6843 A 10.660724 10.637469 45.000065 0 0 73.072211 126.25184 L 125.3825 126.25158 L 125.38236 126.27329 L 142.34745 126.416 A 10.660724 10.637469 45.000065 0 0 152.91006 136.52407 A 10.660724 10.637469 45.000065 0 0 163.62568 125.96505 A 10.660724 10.637469 45.000065 0 0 163.62514 125.88546 C 167.06276 124.92327 169.57865 121.79173 169.60207 118.03271 L 169.77095 90.917943 C 169.79934 86.359325 166.15207 82.658903 161.59338 82.620555 L 145.86748 82.488267 C 141.30879 82.449919 137.61581 86.088594 137.58741 90.647212 L 137.41853 117.76197 C 137.4146 118.39361 137.48344 119.00796 137.61328 119.5992 L 136.24905 119.58772 L 136.24921 61.150361 z "
       transform="matrix(0.99996462,-0.00841193,0.00622828,0.9999806,0,0)" />
    <g
       id="g2044"
       transform="translate(0.72711123)">
      <text
         xml:space="preserve"
         transform="matrix(0.25727735,-0.09156913,0.10533065,0.23694329,-32.208813,41.519002)"
         id="text1200"
         style="font-style:normal;font-variant:normal;font-weight:normal;font-stretch:normal;font-size:96px;font-family:'Marker Felt';-inkscape-font-specification:'Marker Felt, Normal';font-variant-ligatures:normal;font-variant-caps:normal;font-variant-numeric:normal;font-variant-east-asian:normal;white-space:pre;shape-inside:url(#rect1202);fill:#ffffff;fill-opacity:1;fill-rule:evenodd;stroke:none;stroke-width:4.85291;stroke-linecap:square;stroke-linejoin:round;stroke-dasharray:none;stroke-opacity:0.51699"><tspan
           x="154.6543"
           y="369.9875"
           id="tspan3176">freightr</tspan></text>
    </g>
  </g>
</svg>
